solid OpenSCAD_Model
  facet normal 0.2988362387301199 -0.29883623873011983 0.90630778703665
    outer loop
      vertex 3.6508663786087885 10.491269245122163 13.289260487773493
      vertex 2.3258583959936083 -16.46799401972456 4.836895252959505
      vertex 16.46799401972456 -2.3258583959936083 4.836895252959505
    endloop
  endfacet
  facet normal 0.2988362387301199 -0.29883623873011983 0.90630778703665
    outer loop
      vertex 2.3258583959936083 -16.46799401972456 4.836895252959505
      vertex 3.6508663786087885 10.491269245122163 13.289260487773493
      vertex -10.491269245122163 -3.6508663786087885 13.289260487773493
    endloop
  endfacet
  facet normal -0.29883623873011983 0.29883623873011983 -0.90630778703665
    outer loop
      vertex -3.6508663786087885 -10.491269245122163 -13.289260487773493
      vertex -2.3258583959936083 16.46799401972456 -4.836895252959505
      vertex 10.491269245122163 3.6508663786087885 -13.289260487773493
    endloop
  endfacet
  facet normal -0.29883623873011983 0.29883623873011983 -0.90630778703665
    outer loop
      vertex -2.3258583959936083 16.46799401972456 -4.836895252959505
      vertex -3.6508663786087885 -10.491269245122163 -13.289260487773493
      vertex -16.46799401972456 2.3258583959936083 -4.836895252959505
    endloop
  endfacet
  facet normal 0.6408563820557885 -0.6408563820557885 -0.42261826174069955
    outer loop
      vertex 16.46799401972456 -2.3258583959936083 4.836895252959505
      vertex -3.6508663786087885 -10.491269245122163 -13.289260487773493
      vertex 10.491269245122163 3.6508663786087885 -13.289260487773493
    endloop
  endfacet
  facet normal 0.6408563820557885 -0.6408563820557885 -0.42261826174069955
    outer loop
      vertex -3.6508663786087885 -10.491269245122163 -13.289260487773493
      vertex 16.46799401972456 -2.3258583959936083 4.836895252959505
      vertex 2.3258583959936083 -16.46799401972456 4.836895252959505
    endloop
  endfacet
  facet normal 0.7071067811865476 0.7071067811865476 1.2683758987165196e-17
    outer loop
      vertex 16.46799401972456 -2.3258583959936083 4.836895252959505
      vertex -2.3258583959936083 16.46799401972456 -4.836895252959505
      vertex 3.6508663786087885 10.491269245122163 13.289260487773493
    endloop
  endfacet
  facet normal 0.7071067811865476 0.7071067811865476 1.2683758987165196e-17
    outer loop
      vertex -2.3258583959936083 16.46799401972456 -4.836895252959505
      vertex 16.46799401972456 -2.3258583959936083 4.836895252959505
      vertex 10.491269245122163 3.6508663786087885 -13.289260487773493
    endloop
  endfacet
  facet normal -0.6408563820557885 0.6408563820557885 0.42261826174069955
    outer loop
      vertex -16.46799401972456 2.3258583959936083 -4.836895252959505
      vertex 3.6508663786087885 10.491269245122163 13.289260487773493
      vertex -2.3258583959936083 16.46799401972456 -4.836895252959505
    endloop
  endfacet
  facet normal -0.6408563820557885 0.6408563820557885 0.4226182617406996
    outer loop
      vertex 3.6508663786087885 10.491269245122163 13.289260487773493
      vertex -16.46799401972456 2.3258583959936083 -4.836895252959505
      vertex -10.491269245122163 -3.6508663786087885 13.289260487773493
    endloop
  endfacet
  facet normal -0.7071067811865476 -0.7071067811865476 -1.4018143669471987e-17
    outer loop
      vertex -16.46799401972456 2.3258583959936083 -4.836895252959505
      vertex 2.3258583959936083 -16.46799401972456 4.836895252959505
      vertex -10.491269245122163 -3.6508663786087885 13.289260487773493
    endloop
  endfacet
  facet normal -0.7071067811865476 -0.7071067811865476 -1.4018143669471987e-17
    outer loop
      vertex 2.3258583959936083 -16.46799401972456 4.836895252959505
      vertex -16.46799401972456 2.3258583959936083 -4.836895252959505
      vertex -3.6508663786087885 -10.491269245122163 -13.289260487773493
    endloop
  endfacet
endsolid OpenSCAD_Model
